<?xml version="1.0" encoding="UTF-8" standalone="no"?>
<!DOCTYPE svg PUBLIC "-//W3C//DTD SVG 1.0//EN" "http://www.w3.org/TR/2001/REC-SVG-20010904/DTD/svg10.dtd" [
     <!ATTLIST svg xmlns:xlink CDATA #FIXED "http://www.w3.org/1999/xlink">
]>
<!-- Generated by Graphviz version 2.20.2 (Wed Sep 16 11:12:11 UTC 2009)
     For user: (bane) Bane,,, -->
<!-- Title: G Pages: 1 -->
<svg width="206pt" height="116pt" viewBox="0.00 0.00 206.00 116.00" xmlns="http://www.w3.org/2000/svg" xmlns:xlink="http://www.w3.org/1999/xlink">
     <g id="graph0" class="graph" transform="scale(1 1) rotate(0) translate(4 112)">
          <title>G</title>
          <polygon style="fill:none;stroke:none;" points="-4,4 -4,-112 202,-112 202,4 -4,4" />
          <!-- node0 -->
          <g id="node1" class="node">
               <title>node0</title>
               <ellipse style="fill:none;stroke:black;" cx="99" cy="-90" rx="27" ry="18" />
               <text text-anchor="middle" x="99" y="-85.9" style="font-family:Times New Roman;font-size:14.00;">a b</text>
          </g>
          <!-- p -->
          <g id="node2" class="node">
               <title>l</title>
               <text text-anchor="middle" x="27" y="-13.9" style="font-family:Times New Roman;font-size:14.00;">l</text>
          </g>
          <!-- node0&#45;&gt;p -->
          <g id="edge2" class="edge">
               <title>node0&#45;&gt;l</title>
               <path style="fill:none;stroke:black;" d="M84,-75C75,-66 63,-54 52,-43" />
               <polygon style="fill:black;stroke:black;" points="54.546,-40.5962 45,-36 49.5962,-45.546 54.546,-40.5962" />
          </g>
          <!-- q -->
          <g id="node3" class="node">
               <title>m</title>
               <text text-anchor="middle" x="99" y="-13.9" style="font-family:Times New Roman;font-size:14.00;">m</text>
          </g>
          <!-- node0&#45;&gt;q -->
          <g id="edge4" class="edge">
               <title>node0&#45;&gt;m</title>
               <path style="fill:none;stroke:black;" d="M99,-72C99,-64 99,-55 99,-46" />
               <polygon style="fill:black;stroke:black;" points="102.5,-46 99,-36 95.5001,-46 102.5,-46" />
          </g>
          <!-- r -->
          <g id="node4" class="node">
               <title>r</title>
               <text text-anchor="middle" x="171" y="-13.9" style="font-family:Times New Roman;font-size:14.00;">r</text>
          </g>
          <!-- node0&#45;&gt;r -->
          <g id="edge6" class="edge">
               <title>node0&#45;&gt;r</title>
               <path style="fill:none;stroke:black;" d="M114,-75C123,-66 135,-54 146,-43" />
               <polygon style="fill:black;stroke:black;" points="148.404,-45.546 153,-36 143.454,-40.5962 148.404,-45.546" />
          </g>
     </g>
</svg>